<svg class="logo-image" width="66" height="60" viewBox="0 0 66 60" fill="none" xmlns="http://www.w3.org/2000/svg">
<path d="M31.2781 55.2675L29.0778 51.3265L31.2674 51.3019C32.4716 51.2884 34.4509 51.2884 35.6658 51.3019L37.8747 51.3265L35.6765 55.2675L33.4783 59.2084L31.2781 55.2675Z" fill="black"/>
<path d="M27.0002 47.6055L25.167 44.3107L29.307 44.2866C31.584 44.2734 35.3242 44.2734 37.6186 44.2866L41.7902 44.3107L39.9488 47.6081L38.1073 50.9055L33.4704 50.9029L28.8334 50.9002L27.0002 47.6055Z" fill="#74CB97"/>
<path d="M12.9608 22.4679C6.37627 10.6716 0.993919 1.01117 1.00001 1.00019C1.01063 0.981007 3.48357 2.40099 24.1549 14.2959C32.7182 19.2234 33.4778 19.6485 33.6022 19.5827C33.6766 19.5434 40.9806 15.3439 49.8334 10.2505C58.6861 5.15711 65.9354 0.998824 65.943 1.00987C65.9505 1.02093 60.5743 10.6779 53.9958 22.4698L42.0349 43.9095L33.4837 43.9126L24.9326 43.9157L12.9608 22.4679Z" fill="#F6785C"/>
</svg>
